# xmcd
# 
# Track frame offsets:
#     150
#     13187
#     26492
#     40065
#     52452
#     66515
#     79560
#     92990
#     106488
#     119771
#     132520
#     145291
#     158021
#     170934
#     184585
#     199195
#     211438
#     224326
#     236897
#     250281
#     263799
#     276374
#     291506
#     304743
# 
# Disc length: 4251
# 
# Revision: 5
# Processed by: cddbd v1.5.2PL0 Copyright (c) Steve Scherf et al.
# Submitted via: fre:ac v1.0.31
# 
DISCID=88109918
DTITLE=Memphis Slim - Blues Legends 4
DYEAR=0
DGENRE=Blues
TTITLE0=EmptyRoom Blues
TTITLE1=Shelby County Blues
TTITLE2=I See My GreatMistake
TTITLE3=Old Taylor
TTITLE4=I Believe I'll Settle Down
TTITLE5=Jasper's Gal
TTITLE6=You Got To Help Me Some
TTITLE7=Two Of A Kind
TTITLE8=Whiskey Store Blues
TTITLE9=Maybe I'll Loan You A Dime
TTITLE10=Me, Myself And I
TTITLE11=You Gonna Worry Too
TTITLE12=This Life I'm Living
TTITLE13=Caught The Old Coon At Last
TTITLE14=Lend Me Your Love
TTITLE15=Blues At Midnight
TTITLE16=Diggin' My Potatoes No.2
TTITLE17=The Jive Blues
TTITLE18=Last Pair Of Shoes Blues
TTITLE19=Miss Ora Lee Blues
TTITLE20=Blue Evening Blues
TTITLE21=Beer Drinking Woman
TTITLE22=You Didn't Mean Me No Good
TTITLE23=Grinder Man Blues
EXTD=\n
EXTT0=
EXTT1=
EXTT2=
EXTT3=
EXTT4=
EXTT5=
EXTT6=
EXTT7=
EXTT8=
EXTT9=
EXTT10=
EXTT11=
EXTT12=
EXTT13=
EXTT14=
EXTT15=
EXTT16=
EXTT17=
EXTT18=
EXTT19=
EXTT20=
EXTT21=
EXTT22=
EXTT23=
PLAYORDER=
